<mxfile host="app.diagrams.net" agent="Mozilla/5.0 (Windows NT 10.0; Win64; x64) AppleWebKit/537.36 (KHTML, like Gecko) Chrome/131.0.0.0 Safari/537.36" version="25.0.3">
  <diagram name="Page-1" id="_--4EZXSdkX2GkgGGH7n">
    <mxGraphModel dx="934" dy="534" grid="1" gridSize="10" guides="1" tooltips="1" connect="1" arrows="1" fold="1" page="1" pageScale="1" pageWidth="850" pageHeight="1100" math="0" shadow="0">
      <root>
        <mxCell id="0" />
        <mxCell id="1" parent="0" />
        <mxCell id="IW5soLAEP5jQ8z03iQSC-10" value="" style="edgeStyle=orthogonalEdgeStyle;rounded=0;orthogonalLoop=1;jettySize=auto;html=1;" edge="1" parent="1" source="IW5soLAEP5jQ8z03iQSC-1" target="IW5soLAEP5jQ8z03iQSC-5">
          <mxGeometry relative="1" as="geometry" />
        </mxCell>
        <mxCell id="IW5soLAEP5jQ8z03iQSC-18" value="Start = 1" style="edgeLabel;html=1;align=center;verticalAlign=middle;resizable=0;points=[];" vertex="1" connectable="0" parent="IW5soLAEP5jQ8z03iQSC-10">
          <mxGeometry x="0.1824" y="-3" relative="1" as="geometry">
            <mxPoint x="3" y="-4" as="offset" />
          </mxGeometry>
        </mxCell>
        <mxCell id="IW5soLAEP5jQ8z03iQSC-1" value="IDLE" style="rounded=0;whiteSpace=wrap;html=1;" vertex="1" parent="1">
          <mxGeometry x="140" y="120" width="120" height="40" as="geometry" />
        </mxCell>
        <mxCell id="IW5soLAEP5jQ8z03iQSC-12" value="" style="edgeStyle=orthogonalEdgeStyle;rounded=0;orthogonalLoop=1;jettySize=auto;html=1;" edge="1" parent="1" source="IW5soLAEP5jQ8z03iQSC-2" target="IW5soLAEP5jQ8z03iQSC-7">
          <mxGeometry relative="1" as="geometry" />
        </mxCell>
        <mxCell id="IW5soLAEP5jQ8z03iQSC-2" value="INVERT" style="rounded=0;whiteSpace=wrap;html=1;" vertex="1" parent="1">
          <mxGeometry x="140" y="290" width="120" height="40" as="geometry" />
        </mxCell>
        <mxCell id="IW5soLAEP5jQ8z03iQSC-16" value="" style="edgeStyle=orthogonalEdgeStyle;rounded=0;orthogonalLoop=1;jettySize=auto;html=1;" edge="1" parent="1" source="IW5soLAEP5jQ8z03iQSC-4" target="IW5soLAEP5jQ8z03iQSC-9">
          <mxGeometry relative="1" as="geometry" />
        </mxCell>
        <mxCell id="IW5soLAEP5jQ8z03iQSC-4" value="CHECK END" style="rounded=0;whiteSpace=wrap;html=1;" vertex="1" parent="1">
          <mxGeometry x="347.5" y="290" width="120" height="40" as="geometry" />
        </mxCell>
        <mxCell id="IW5soLAEP5jQ8z03iQSC-11" value="" style="edgeStyle=orthogonalEdgeStyle;rounded=0;orthogonalLoop=1;jettySize=auto;html=1;entryX=0.5;entryY=0;entryDx=0;entryDy=0;" edge="1" parent="1" source="IW5soLAEP5jQ8z03iQSC-5" target="IW5soLAEP5jQ8z03iQSC-2">
          <mxGeometry relative="1" as="geometry" />
        </mxCell>
        <mxCell id="IW5soLAEP5jQ8z03iQSC-5" value="we &amp;lt;= 0&lt;div&gt;en &amp;lt;= 1&lt;/div&gt;&lt;div&gt;reg &amp;lt;= 0&lt;/div&gt;" style="rounded=1;whiteSpace=wrap;html=1;" vertex="1" parent="1">
          <mxGeometry x="170" y="200" width="60" height="60" as="geometry" />
        </mxCell>
        <mxCell id="IW5soLAEP5jQ8z03iQSC-14" value="" style="edgeStyle=orthogonalEdgeStyle;rounded=0;orthogonalLoop=1;jettySize=auto;html=1;" edge="1" parent="1" source="IW5soLAEP5jQ8z03iQSC-6" target="IW5soLAEP5jQ8z03iQSC-8">
          <mxGeometry relative="1" as="geometry" />
        </mxCell>
        <mxCell id="IW5soLAEP5jQ8z03iQSC-6" value="WRITE" style="rounded=0;whiteSpace=wrap;html=1;" vertex="1" parent="1">
          <mxGeometry x="347.5" y="120" width="120" height="40" as="geometry" />
        </mxCell>
        <mxCell id="IW5soLAEP5jQ8z03iQSC-13" style="edgeStyle=orthogonalEdgeStyle;rounded=0;orthogonalLoop=1;jettySize=auto;html=1;entryX=0;entryY=0.5;entryDx=0;entryDy=0;" edge="1" parent="1" source="IW5soLAEP5jQ8z03iQSC-7" target="IW5soLAEP5jQ8z03iQSC-6">
          <mxGeometry relative="1" as="geometry">
            <Array as="points">
              <mxPoint x="300" y="410" />
              <mxPoint x="300" y="140" />
            </Array>
          </mxGeometry>
        </mxCell>
        <mxCell id="IW5soLAEP5jQ8z03iQSC-7" value="dataW &amp;lt;= not(dataR)&lt;div&gt;next_reg &amp;lt;= reg + 25344&lt;/div&gt;" style="rounded=1;whiteSpace=wrap;html=1;" vertex="1" parent="1">
          <mxGeometry x="130" y="370" width="140" height="80" as="geometry" />
        </mxCell>
        <mxCell id="IW5soLAEP5jQ8z03iQSC-15" value="" style="edgeStyle=orthogonalEdgeStyle;rounded=0;orthogonalLoop=1;jettySize=auto;html=1;" edge="1" parent="1" source="IW5soLAEP5jQ8z03iQSC-8">
          <mxGeometry relative="1" as="geometry">
            <mxPoint x="407.5" y="290" as="targetPoint" />
          </mxGeometry>
        </mxCell>
        <mxCell id="IW5soLAEP5jQ8z03iQSC-8" value="we &amp;lt;= 1&lt;div&gt;en &amp;lt;= 1&lt;/div&gt;" style="rounded=1;whiteSpace=wrap;html=1;" vertex="1" parent="1">
          <mxGeometry x="377.5" y="200" width="60" height="60" as="geometry" />
        </mxCell>
        <mxCell id="IW5soLAEP5jQ8z03iQSC-22" style="edgeStyle=orthogonalEdgeStyle;rounded=0;orthogonalLoop=1;jettySize=auto;html=1;entryX=0;entryY=0.5;entryDx=0;entryDy=0;" edge="1" parent="1" source="IW5soLAEP5jQ8z03iQSC-9" target="IW5soLAEP5jQ8z03iQSC-2">
          <mxGeometry relative="1" as="geometry">
            <Array as="points">
              <mxPoint x="408" y="490" />
              <mxPoint x="110" y="490" />
              <mxPoint x="110" y="310" />
            </Array>
          </mxGeometry>
        </mxCell>
        <mxCell id="IW5soLAEP5jQ8z03iQSC-9" value="&lt;div style=&quot;text-align: left;&quot;&gt;we &amp;lt;= 0&lt;/div&gt;&lt;div style=&quot;text-align: left;&quot;&gt;&lt;span style=&quot;background-color: initial;&quot;&gt;if reg /= 5688&amp;nbsp;&lt;/span&gt;&lt;/div&gt;&lt;div style=&quot;text-align: left;&quot;&gt;&lt;span style=&quot;white-space: pre;&quot;&gt;&#x9;&lt;/span&gt;next_reg &amp;lt;= reg -&amp;nbsp;&lt;span style=&quot;background-color: initial;&quot;&gt;25343&lt;/span&gt;&lt;/div&gt;&lt;div style=&quot;text-align: left;&quot;&gt;&lt;span style=&quot;background-color: initial;&quot;&gt;else&lt;/span&gt;&lt;/div&gt;&lt;div style=&quot;text-align: left;&quot;&gt;&lt;span style=&quot;background-color: initial;&quot;&gt;&lt;span style=&quot;white-space: pre;&quot;&gt;&#x9;&lt;/span&gt;en &amp;lt;= 0&lt;/span&gt;&lt;/div&gt;&lt;div style=&quot;text-align: left;&quot;&gt;&lt;span style=&quot;background-color: initial;&quot;&gt;&lt;span style=&quot;white-space: pre;&quot;&gt;&#x9;&lt;/span&gt;finish &amp;lt;= 1&lt;/span&gt;&lt;span style=&quot;background-color: initial;&quot;&gt;&amp;nbsp;&lt;/span&gt;&lt;/div&gt;" style="rounded=1;whiteSpace=wrap;html=1;" vertex="1" parent="1">
          <mxGeometry x="320" y="370" width="175" height="100" as="geometry" />
        </mxCell>
        <mxCell id="IW5soLAEP5jQ8z03iQSC-19" style="edgeStyle=orthogonalEdgeStyle;rounded=0;orthogonalLoop=1;jettySize=auto;html=1;exitX=1;exitY=0.5;exitDx=0;exitDy=0;entryX=0.5;entryY=0;entryDx=0;entryDy=0;" edge="1" parent="1" source="IW5soLAEP5jQ8z03iQSC-9" target="IW5soLAEP5jQ8z03iQSC-1">
          <mxGeometry relative="1" as="geometry">
            <Array as="points">
              <mxPoint x="520" y="425" />
              <mxPoint x="520" y="80" />
              <mxPoint x="200" y="80" />
            </Array>
          </mxGeometry>
        </mxCell>
        <mxCell id="IW5soLAEP5jQ8z03iQSC-20" value="Start = 0 AND finish = 1" style="edgeLabel;html=1;align=center;verticalAlign=middle;resizable=0;points=[];" vertex="1" connectable="0" parent="IW5soLAEP5jQ8z03iQSC-19">
          <mxGeometry x="0.0527" relative="1" as="geometry">
            <mxPoint x="-128" as="offset" />
          </mxGeometry>
        </mxCell>
      </root>
    </mxGraphModel>
  </diagram>
</mxfile>
